#define frame_1_width 64
#define frame_1_height 47
static unsigned char frame_1_bits[] = {
   0x00, 0x00, 0x00, 0x00, 0x00, 0x00, 0x00, 0x00, 0x00, 0x00, 0x00, 0x00,
   0x00, 0x00, 0x00, 0x00, 0x00, 0x00, 0x00, 0x00, 0x00, 0x00, 0x00, 0x00,
   0x00, 0x00, 0x00, 0x00, 0x00, 0x00, 0x00, 0x00, 0x00, 0x00, 0x00, 0xf0,
   0x33, 0x00, 0x00, 0x00, 0x00, 0x00, 0x00, 0xff, 0xff, 0x00, 0x00, 0x00,
   0x00, 0x00, 0xc0, 0x03, 0xe4, 0x03, 0x00, 0x00, 0x00, 0x00, 0x60, 0x00,
   0xe2, 0x03, 0x00, 0x00, 0x00, 0x00, 0x38, 0x00, 0xd9, 0x07, 0x00, 0x00,
   0x00, 0x00, 0x0c, 0x80, 0xf9, 0x0e, 0x00, 0x00, 0x00, 0x60, 0x06, 0x80,
   0x78, 0x18, 0x00, 0x00, 0x00, 0x60, 0x03, 0x40, 0x3a, 0x18, 0x00, 0x00,
   0x00, 0xa0, 0x03, 0x40, 0x3c, 0x20, 0x00, 0x00, 0x00, 0x20, 0x01, 0x40,
   0x1a, 0x60, 0x00, 0x00, 0x00, 0x60, 0x02, 0x60, 0x1e, 0xc0, 0x00, 0x00,
   0x00, 0x60, 0x08, 0x60, 0x0f, 0xc0, 0x00, 0x00, 0x18, 0xd0, 0x12, 0xf0,
   0x1f, 0x80, 0x01, 0x00, 0x78, 0xa0, 0x01, 0x10, 0x20, 0x80, 0x01, 0x00,
   0xf8, 0x20, 0x26, 0x08, 0x20, 0x00, 0x01, 0x00, 0xf8, 0xf3, 0x00, 0x48,
   0x31, 0x00, 0x03, 0x00, 0x70, 0x7e, 0x57, 0xf8, 0x37, 0x62, 0x03, 0x00,
   0xb0, 0x7c, 0x00, 0xe9, 0x75, 0x66, 0x03, 0x00, 0xc0, 0x9b, 0x4a, 0xd8,
   0x2b, 0x04, 0x02, 0x00, 0x00, 0x1e, 0x0a, 0xf8, 0x35, 0xc0, 0xff, 0x0f,
   0x80, 0x1b, 0x00, 0xd8, 0x7b, 0x78, 0x00, 0x3d, 0xf0, 0x3c, 0x00, 0xf8,
   0x37, 0x06, 0x00, 0x18, 0x78, 0x16, 0x00, 0xf8, 0x3f, 0x04, 0x00, 0x08,
   0xf8, 0x33, 0x00, 0xe0, 0x1f, 0x0c, 0x00, 0x0c, 0xe0, 0x20, 0x00, 0x00,
   0x04, 0x08, 0x07, 0x06, 0x00, 0x60, 0x00, 0x00, 0x00, 0x90, 0x3f, 0x03,
   0x00, 0xc0, 0x00, 0x00, 0x00, 0xf0, 0xe0, 0x01, 0x00, 0xc0, 0x01, 0x00,
   0x00, 0xe0, 0x00, 0x00, 0x00, 0x80, 0x03, 0x00, 0x00, 0x78, 0x00, 0x00,
   0x00, 0x00, 0x0f, 0x00, 0x00, 0x38, 0x00, 0x00, 0x00, 0x00, 0x3c, 0x01,
   0x40, 0x0f, 0x00, 0x00, 0x00, 0x00, 0xf8, 0x55, 0xd5, 0x03, 0x00, 0x00,
   0x00, 0x00, 0xc0, 0xff, 0xff, 0x00, 0x00, 0x00, 0x00, 0x00, 0x00, 0xfe,
   0x1f, 0x00, 0x00, 0x00, 0x00, 0x00, 0x00, 0x0c, 0x0e, 0x00, 0x00, 0x00,
   0x00, 0x00, 0x00, 0x0c, 0x0e, 0x00, 0x00, 0x00, 0x00, 0x00, 0x00, 0x0c,
   0x06, 0x00, 0x00, 0x00, 0x00, 0x00, 0x00, 0xce, 0x0f, 0x00, 0x00, 0x00,
   0x00, 0x00, 0x00, 0xfe, 0x1f, 0x00, 0x00, 0x00, 0x00, 0x00, 0x00, 0xfe,
   0x03, 0x00, 0x00, 0x00, 0x00, 0x00, 0x00, 0x82, 0xfb, 0x01, 0x00, 0x00,
   0x00, 0x00, 0x00, 0x80, 0xff, 0x01, 0x00, 0x00, 0x00, 0x00, 0x00, 0xc0,
   0xff, 0x03, 0x00, 0x00 };
