#define frame_3_width 64
#define frame_3_height 47
static unsigned char frame_3_bits[] = {
   0x00, 0x00, 0x00, 0x00, 0x00, 0x00, 0x00, 0x00, 0x00, 0x00, 0x00, 0x00,
   0x00, 0x00, 0x00, 0x00, 0x00, 0x00, 0x00, 0x00, 0x00, 0x00, 0x00, 0x00,
   0x00, 0x00, 0x00, 0x00, 0x00, 0x00, 0x00, 0x00, 0x00, 0x00, 0x00, 0x00,
   0x00, 0x00, 0x00, 0x00, 0x00, 0x00, 0x00, 0xfc, 0x7f, 0x00, 0x00, 0x00,
   0x00, 0x00, 0x80, 0x0f, 0xee, 0x01, 0x00, 0x00, 0x00, 0x00, 0xc0, 0x01,
   0xe6, 0x03, 0x00, 0x00, 0x00, 0x00, 0x70, 0x00, 0xd2, 0x03, 0x00, 0x00,
   0x00, 0x00, 0x18, 0x80, 0xf1, 0x07, 0x00, 0x00, 0x00, 0x20, 0x0c, 0x80,
   0x78, 0x0c, 0x00, 0x00, 0x00, 0x60, 0x06, 0x80, 0x38, 0x18, 0x00, 0x00,
   0x00, 0xe0, 0x03, 0x40, 0x3e, 0x30, 0x00, 0x00, 0x00, 0xa0, 0x01, 0x40,
   0x1a, 0x60, 0x00, 0x00, 0x00, 0x20, 0x01, 0x40, 0x1e, 0x40, 0x00, 0x00,
   0x00, 0x60, 0x04, 0x20, 0x1d, 0xc0, 0x00, 0x00, 0x08, 0xf0, 0x08, 0xe0,
   0x1f, 0x80, 0x00, 0x00, 0x38, 0x90, 0x01, 0x38, 0x11, 0x80, 0x01, 0x00,
   0x78, 0x20, 0x2b, 0x08, 0x20, 0x00, 0x01, 0x00, 0xf8, 0x71, 0x00, 0x08,
   0x20, 0x00, 0x01, 0x00, 0x78, 0xf7, 0x4b, 0xf8, 0x3f, 0x20, 0x03, 0x00,
   0x30, 0x7c, 0x14, 0xe8, 0x31, 0x66, 0x03, 0x00, 0xe0, 0x59, 0x41, 0xf9,
   0x77, 0x46, 0x02, 0x00, 0x80, 0x9f, 0x09, 0xe8, 0x35, 0x00, 0xff, 0x00,
   0x00, 0x1e, 0x04, 0xf8, 0x6b, 0xf0, 0xff, 0x3f, 0xc0, 0x19, 0x00, 0xf8,
   0x3b, 0x1e, 0x00, 0x38, 0x78, 0x3e, 0x00, 0xf8, 0x3e, 0x04, 0x00, 0x18,
   0xf8, 0x12, 0x00, 0xf0, 0x3f, 0x04, 0x00, 0x0c, 0xf0, 0x31, 0x00, 0xa0,
   0x0d, 0x08, 0x01, 0x04, 0x00, 0x20, 0x00, 0x00, 0x00, 0x10, 0x0f, 0x06,
   0x00, 0x60, 0x00, 0x00, 0x00, 0xb0, 0xf9, 0x03, 0x00, 0xc0, 0x00, 0x00,
   0x00, 0xe0, 0x80, 0x01, 0x00, 0x80, 0x03, 0x00, 0x00, 0x68, 0x00, 0x00,
   0x00, 0x00, 0x07, 0x00, 0x00, 0x38, 0x00, 0x00, 0x00, 0x00, 0x1e, 0x00,
   0x80, 0x1e, 0x00, 0x00, 0x00, 0x00, 0x7c, 0x49, 0x92, 0x07, 0x00, 0x00,
   0x00, 0x00, 0xe0, 0x97, 0xfc, 0x01, 0x00, 0x00, 0x00, 0x00, 0xc0, 0xff,
   0x7f, 0x00, 0x00, 0x00, 0x00, 0x00, 0xc0, 0x01, 0xf8, 0x00, 0x00, 0x00,
   0x00, 0x00, 0xe0, 0x00, 0xe0, 0x00, 0x00, 0x00, 0x00, 0x00, 0xe0, 0x00,
   0xc0, 0x00, 0x00, 0x00, 0x00, 0x00, 0x60, 0x00, 0xe0, 0x00, 0x00, 0x00,
   0x00, 0x00, 0x70, 0x00, 0x60, 0x00, 0x00, 0x00, 0x00, 0x00, 0x30, 0x00,
   0xf0, 0x0f, 0x00, 0x00, 0x00, 0x00, 0xb8, 0x0f, 0xf8, 0x1f, 0x00, 0x00,
   0x00, 0x00, 0xf8, 0x1f, 0x00, 0x00, 0x00, 0x00, 0x00, 0x00, 0xf8, 0x1f,
   0x00, 0x00, 0x00, 0x00 };
