#define frame_2_width 64
#define frame_2_height 47
static unsigned char frame_2_bits[] = {
   0x00, 0x00, 0x00, 0x00, 0x00, 0x00, 0x00, 0x00, 0x00, 0x00, 0x00, 0x00,
   0x00, 0x00, 0x00, 0x00, 0x00, 0x00, 0x00, 0x00, 0x00, 0x00, 0x00, 0x00,
   0x00, 0x00, 0x00, 0x00, 0x00, 0x00, 0x00, 0x00, 0x00, 0x00, 0x00, 0x40,
   0x00, 0x00, 0x00, 0x00, 0x00, 0x00, 0x00, 0xfe, 0xff, 0x00, 0x00, 0x00,
   0x00, 0x00, 0x80, 0x07, 0xee, 0x01, 0x00, 0x00, 0x00, 0x00, 0xe0, 0x00,
   0xe2, 0x03, 0x00, 0x00, 0x00, 0x00, 0x30, 0x00, 0xf3, 0x03, 0x00, 0x00,
   0x00, 0x00, 0x18, 0x00, 0xe9, 0x07, 0x00, 0x00, 0x00, 0x00, 0x0c, 0x80,
   0x78, 0x0c, 0x00, 0x00, 0x00, 0x00, 0x02, 0xc0, 0x3a, 0x18, 0x00, 0x00,
   0x00, 0x00, 0x03, 0x40, 0x3c, 0x30, 0x00, 0x00, 0x00, 0x80, 0x01, 0x40,
   0x1c, 0x60, 0x00, 0x00, 0x00, 0xc0, 0x00, 0x60, 0x1e, 0x40, 0x00, 0x00,
   0x00, 0x40, 0x00, 0x60, 0x0f, 0xc0, 0x00, 0x00, 0x18, 0x60, 0x00, 0xe0,
   0x1f, 0x80, 0x00, 0x00, 0x38, 0x38, 0x00, 0x18, 0x30, 0x80, 0x01, 0x00,
   0xf8, 0xf8, 0x00, 0x08, 0x20, 0x00, 0x01, 0x00, 0xf8, 0x3b, 0x0d, 0x88,
   0x20, 0x00, 0x03, 0x00, 0x78, 0xbf, 0x50, 0xf8, 0x7f, 0x62, 0x03, 0x00,
   0x70, 0xfc, 0x05, 0xf8, 0x33, 0x66, 0x03, 0x00, 0xe0, 0x3b, 0x55, 0xd9,
   0x6b, 0x06, 0x02, 0x00, 0x00, 0x5f, 0x05, 0xf8, 0x35, 0x80, 0xff, 0x03,
   0x00, 0x1f, 0x00, 0xd8, 0x3b, 0xf8, 0xd5, 0x3f, 0xe0, 0x19, 0x00, 0xf8,
   0x3b, 0x0e, 0x00, 0x18, 0x78, 0x36, 0x00, 0xf8, 0x3f, 0x04, 0x00, 0x18,
   0xf8, 0x33, 0x00, 0xf0, 0x3f, 0x0c, 0x00, 0x0c, 0xe0, 0x30, 0x00, 0x40,
   0x05, 0x08, 0x03, 0x06, 0x00, 0x60, 0x00, 0x00, 0x00, 0x90, 0x1f, 0x02,
   0x00, 0xe0, 0x00, 0x00, 0x00, 0xb0, 0xf1, 0x03, 0x00, 0xc0, 0x02, 0x00,
   0x00, 0xe0, 0x00, 0x01, 0x00, 0x80, 0x13, 0x00, 0x00, 0x74, 0x00, 0x00,
   0x00, 0x00, 0x07, 0x00, 0x00, 0x38, 0x00, 0x00, 0x00, 0x00, 0xbe, 0x44,
   0xa4, 0x1e, 0x00, 0x00, 0x00, 0x00, 0x78, 0x89, 0xc0, 0x07, 0x00, 0x00,
   0x00, 0x00, 0xe0, 0xbf, 0xff, 0x01, 0x00, 0x00, 0x00, 0x00, 0x00, 0xff,
   0x3f, 0x00, 0x00, 0x00, 0x00, 0x00, 0x00, 0xee, 0x31, 0x00, 0x00, 0x00,
   0x00, 0x00, 0x00, 0xfe, 0x3f, 0x00, 0x00, 0x00, 0x00, 0x00, 0x00, 0x7c,
   0x3f, 0x00, 0x00, 0x00, 0x00, 0x00, 0x00, 0x3c, 0x7e, 0x00, 0x00, 0x00,
   0x00, 0x00, 0x00, 0x3e, 0x3f, 0x00, 0x00, 0x00, 0x00, 0x00, 0x00, 0x9f,
   0x0f, 0x00, 0x00, 0x00, 0x00, 0x00, 0x80, 0xff, 0x03, 0x00, 0x00, 0x00,
   0x00, 0x00, 0x00, 0xf0, 0x00, 0x00, 0x00, 0x00, 0x00, 0x00, 0x00, 0x30,
   0x00, 0x00, 0x00, 0x00 };
