#define frame1_width 47
#define frame1_height 46
static unsigned char frame1_bits[] = {
   0x00, 0x00, 0x00, 0x00, 0x00, 0x00, 0x00, 0x00, 0x00, 0x00, 0x00, 0x00,
   0x00, 0x00, 0x00, 0x00, 0x00, 0x00, 0x00, 0x00, 0x00, 0x00, 0x00, 0x00,
   0x00, 0xc0, 0x40, 0x00, 0x00, 0x00, 0x00, 0x80, 0x83, 0x01, 0x00, 0x00,
   0x00, 0x00, 0x8f, 0x03, 0x00, 0x00, 0x00, 0x00, 0x97, 0x33, 0x00, 0x00,
   0x00, 0x00, 0xaa, 0x53, 0x08, 0x00, 0x00, 0x00, 0xd6, 0x1e, 0x10, 0x00,
   0x00, 0x00, 0x28, 0x11, 0x24, 0x00, 0x00, 0x00, 0xef, 0x10, 0x04, 0x00,
   0x00, 0x00, 0xd2, 0x30, 0x48, 0x00, 0x00, 0x00, 0xf6, 0x44, 0x18, 0x00,
   0x00, 0x20, 0xdb, 0x02, 0xc0, 0x00, 0x00, 0x20, 0xc6, 0x80, 0x84, 0x00,
   0x00, 0x20, 0x6e, 0x02, 0x00, 0x01, 0x00, 0x20, 0xc9, 0x00, 0x00, 0x02,
   0x00, 0x72, 0x30, 0x01, 0x00, 0x02, 0x00, 0x02, 0x60, 0x00, 0x50, 0x02,
   0x00, 0x02, 0xe0, 0x01, 0x18, 0x02, 0x00, 0x0e, 0x00, 0x80, 0x71, 0x01,
   0x40, 0x83, 0x00, 0x00, 0x00, 0x01, 0x40, 0xe0, 0x00, 0x00, 0x00, 0x01,
   0x00, 0x30, 0x03, 0x00, 0x86, 0x00, 0xc0, 0x0d, 0x01, 0x00, 0xe2, 0x00,
   0x40, 0xc6, 0x7c, 0x00, 0x60, 0x00, 0xe0, 0x71, 0x1e, 0x00, 0x30, 0x00,
   0x00, 0x1c, 0x3b, 0x00, 0x0c, 0x00, 0x00, 0xf8, 0xef, 0x82, 0x03, 0x00,
   0x00, 0x00, 0x00, 0x7e, 0x00, 0x00, 0x00, 0x00, 0x00, 0x00, 0x00, 0x00,
   0x00, 0x00, 0x00, 0x00, 0x00, 0x00, 0x00, 0x00, 0x00, 0x00, 0x00, 0x00,
   0x00, 0x00, 0x00, 0x00, 0x00, 0x00, 0x00, 0x00, 0x00, 0x00, 0x00, 0x00,
   0x00, 0x00, 0x00, 0x00, 0x00, 0x00, 0x00, 0x00, 0x00, 0x00, 0x00, 0x00,
   0x00, 0x00, 0x00, 0x00, 0x00, 0x00, 0x00, 0x00, 0x00, 0x00, 0x00, 0x00,
   0x00, 0x00, 0x00, 0x00, 0x00, 0x00, 0x00, 0x00, 0x00, 0x00, 0x00, 0x00,
   0x00, 0x00, 0x00, 0x00, 0x00, 0x00, 0x00, 0x00, 0x00, 0x00, 0x00, 0x00,
   0x00, 0x00, 0x00, 0x00, 0x00, 0x00, 0x00, 0x00, 0x00, 0x00, 0x00, 0x00 };
