#define frame3_width 47
#define frame3_height 46
static unsigned char frame3_bits[] = {
   0x00, 0x00, 0x00, 0x00, 0x00, 0x00, 0x00, 0x00, 0x00, 0x00, 0x00, 0x00,
   0x00, 0x00, 0x00, 0x00, 0x00, 0x00, 0x00, 0x00, 0x00, 0x00, 0x00, 0x00,
   0x00, 0x00, 0x00, 0x00, 0x00, 0x00, 0x00, 0x00, 0x00, 0x00, 0x00, 0x00,
   0x00, 0x00, 0x00, 0x00, 0x00, 0x00, 0x00, 0x00, 0x00, 0x30, 0x00, 0x00,
   0x00, 0x00, 0x00, 0x50, 0x08, 0x00, 0x00, 0x00, 0x00, 0x14, 0x10, 0x00,
   0x00, 0x00, 0x00, 0x18, 0x24, 0x00, 0x00, 0x00, 0x28, 0x11, 0x06, 0x00,
   0x00, 0x00, 0xc0, 0x21, 0x40, 0x00, 0x00, 0x00, 0x80, 0x4c, 0x18, 0x00,
   0x00, 0x20, 0x27, 0x00, 0xc0, 0x00, 0x00, 0x20, 0x0e, 0x80, 0x84, 0x00,
   0x00, 0x20, 0x0e, 0x00, 0x00, 0x01, 0x00, 0x20, 0x0c, 0x00, 0x00, 0x02,
   0x00, 0x72, 0x34, 0x00, 0x00, 0x02, 0x00, 0x22, 0x04, 0x00, 0x78, 0x02,
   0x00, 0x02, 0x5a, 0x80, 0x10, 0x02, 0x00, 0x0e, 0x22, 0x80, 0x71, 0x01,
   0x40, 0xc3, 0xab, 0x01, 0x00, 0x01, 0x40, 0xe0, 0x2f, 0x03, 0x00, 0x01,
   0x00, 0xf0, 0xff, 0x01, 0x8e, 0x00, 0xc0, 0x3d, 0x03, 0x00, 0xe0, 0x00,
   0x40, 0x86, 0x79, 0x00, 0x60, 0x00, 0xe0, 0xc1, 0x2c, 0x00, 0x30, 0x00,
   0x00, 0x30, 0x3e, 0x00, 0x0c, 0x00, 0x00, 0xb8, 0xff, 0xcb, 0x03, 0x00,
   0x00, 0xf0, 0x07, 0x7e, 0x00, 0x00, 0x00, 0x00, 0x00, 0x00, 0x00, 0x00,
   0x00, 0x00, 0x00, 0x00, 0x00, 0x00, 0x00, 0x00, 0x00, 0x00, 0x00, 0x00,
   0x00, 0x00, 0x00, 0x00, 0x00, 0x00, 0x00, 0x00, 0x00, 0x00, 0x00, 0x00,
   0x00, 0x00, 0x00, 0x00, 0x00, 0x00, 0x00, 0x00, 0x00, 0x00, 0x00, 0x00,
   0x00, 0x00, 0x00, 0x00, 0x00, 0x00, 0x00, 0x00, 0x00, 0x00, 0x00, 0x00,
   0x00, 0x00, 0x00, 0x00, 0x00, 0x00, 0x00, 0x00, 0x00, 0x00, 0x00, 0x00,
   0x00, 0x00, 0x00, 0x00, 0x00, 0x00, 0x00, 0x00, 0x00, 0x00, 0x00, 0x00,
   0x00, 0x00, 0x00, 0x00, 0x00, 0x00, 0x00, 0x00, 0x00, 0x00, 0x00, 0x00 };
