#define frame4_width 47
#define frame4_height 46
static unsigned char frame4_bits[] = {
   0x00, 0x00, 0x00, 0x00, 0x00, 0x00, 0x00, 0x00, 0x00, 0x00, 0x00, 0x00,
   0x00, 0x00, 0x00, 0x00, 0x00, 0x00, 0x00, 0x00, 0x00, 0x00, 0x00, 0x00,
   0x00, 0x00, 0x00, 0x00, 0x00, 0x00, 0x00, 0x00, 0x00, 0x00, 0x00, 0x00,
   0x00, 0x00, 0x00, 0x00, 0x00, 0x00, 0x00, 0x00, 0x00, 0x30, 0x00, 0x00,
   0x00, 0x00, 0x00, 0x50, 0x08, 0x00, 0x00, 0x00, 0x00, 0x14, 0x10, 0x00,
   0x00, 0x00, 0x00, 0x18, 0x24, 0x00, 0x00, 0x00, 0x28, 0x11, 0x04, 0x00,
   0x00, 0x00, 0xc0, 0x21, 0x48, 0x00, 0x00, 0x00, 0x80, 0x4c, 0x18, 0x00,
   0x00, 0x20, 0x25, 0x00, 0xc0, 0x00, 0x00, 0x20, 0x06, 0x80, 0x84, 0x00,
   0x00, 0x20, 0x00, 0x00, 0x00, 0x01, 0x00, 0x20, 0x01, 0x00, 0x00, 0x02,
   0x00, 0xb2, 0x00, 0x00, 0x00, 0x02, 0x00, 0x22, 0x00, 0x00, 0x78, 0x02,
   0x00, 0x02, 0x00, 0x80, 0x10, 0x03, 0x00, 0x0e, 0x00, 0x80, 0x31, 0x01,
   0x40, 0x83, 0x00, 0x00, 0x00, 0x01, 0x40, 0xe0, 0x41, 0x01, 0x00, 0x01,
   0x00, 0x30, 0x45, 0x00, 0x8f, 0x00, 0xc0, 0x0d, 0x62, 0x00, 0xe0, 0x00,
   0x40, 0x06, 0x59, 0x01, 0x60, 0x00, 0xe0, 0xc1, 0x7c, 0x00, 0x30, 0x00,
   0x00, 0x60, 0xbe, 0x00, 0x0e, 0x00, 0x00, 0x18, 0xaf, 0xab, 0x03, 0x00,
   0x00, 0xf8, 0xdf, 0x7f, 0x00, 0x00, 0x00, 0x00, 0xd7, 0x19, 0x00, 0x00,
   0x00, 0x00, 0x3b, 0x07, 0x00, 0x00, 0x00, 0x00, 0x9c, 0x06, 0x00, 0x00,
   0x00, 0x00, 0x8f, 0x03, 0x00, 0x00, 0x00, 0x00, 0x87, 0x01, 0x00, 0x00,
   0x00, 0x80, 0x41, 0x00, 0x00, 0x00, 0x00, 0x00, 0x00, 0x00, 0x00, 0x00,
   0x00, 0x00, 0x00, 0x00, 0x00, 0x00, 0x00, 0x00, 0x00, 0x00, 0x00, 0x00,
   0x00, 0x00, 0x00, 0x00, 0x00, 0x00, 0x00, 0x00, 0x00, 0x00, 0x00, 0x00,
   0x00, 0x00, 0x00, 0x00, 0x00, 0x00, 0x00, 0x00, 0x00, 0x00, 0x00, 0x00,
   0x00, 0x00, 0x00, 0x00, 0x00, 0x00, 0x00, 0x00, 0x00, 0x00, 0x00, 0x00 };
