#define frame5_width 47
#define frame5_height 46
static unsigned char frame5_bits[] = {
   0x00, 0x00, 0x00, 0x00, 0x00, 0x00, 0x00, 0x00, 0x00, 0x00, 0x00, 0x00,
   0x00, 0x00, 0x00, 0x00, 0x00, 0x00, 0x00, 0x00, 0x00, 0x00, 0x00, 0x00,
   0x00, 0x00, 0x00, 0x00, 0x00, 0x00, 0x00, 0x00, 0x00, 0x00, 0x00, 0x00,
   0x00, 0x00, 0x00, 0x00, 0x00, 0x00, 0x00, 0x00, 0x00, 0x30, 0x00, 0x00,
   0x00, 0x00, 0x00, 0x50, 0x08, 0x00, 0x00, 0x00, 0x00, 0x14, 0x10, 0x00,
   0x00, 0x00, 0x00, 0x18, 0x24, 0x00, 0x00, 0x00, 0x28, 0x11, 0x06, 0x00,
   0x00, 0x00, 0xc0, 0x21, 0x40, 0x00, 0x00, 0x00, 0x80, 0x4c, 0x18, 0x00,
   0x00, 0x20, 0x25, 0x00, 0xc0, 0x00, 0x00, 0x20, 0x06, 0x80, 0x84, 0x00,
   0x00, 0x20, 0x00, 0x00, 0x00, 0x01, 0x00, 0x20, 0x01, 0x00, 0x00, 0x02,
   0x00, 0x32, 0x00, 0x00, 0x00, 0x02, 0x00, 0x22, 0x00, 0x00, 0x70, 0x02,
   0x00, 0x02, 0x00, 0x00, 0x18, 0x02, 0x00, 0x0e, 0x00, 0x80, 0x71, 0x01,
   0x40, 0x83, 0x50, 0x01, 0x00, 0x01, 0x40, 0xe0, 0x50, 0x00, 0x00, 0x01,
   0x00, 0x30, 0xbf, 0x00, 0x8a, 0x00, 0xc0, 0x0d, 0xae, 0x00, 0xe2, 0x00,
   0x40, 0x06, 0x57, 0x00, 0x40, 0x00, 0xe0, 0x81, 0x63, 0x01, 0x30, 0x00,
   0x00, 0xc0, 0x77, 0x00, 0x0c, 0x00, 0x00, 0x30, 0x6d, 0x83, 0x03, 0x00,
   0x00, 0xf8, 0xf3, 0x7e, 0x01, 0x00, 0x00, 0x80, 0x6b, 0x6e, 0x00, 0x00,
   0x00, 0x00, 0x7a, 0xab, 0x00, 0x00, 0x00, 0x00, 0x4e, 0xab, 0x00, 0x00,
   0x00, 0x00, 0x53, 0x53, 0x00, 0x00, 0x00, 0x00, 0xaa, 0x54, 0x00, 0x00,
   0x00, 0x00, 0xa4, 0x34, 0x00, 0x00, 0x00, 0x00, 0x6c, 0x3c, 0x00, 0x00,
   0x00, 0x00, 0x54, 0x1c, 0x00, 0x00, 0x00, 0x00, 0x34, 0x0c, 0x00, 0x00,
   0x00, 0x00, 0x18, 0x0c, 0x00, 0x00, 0x00, 0x00, 0x18, 0x04, 0x00, 0x00,
   0x00, 0x00, 0x08, 0x02, 0x00, 0x00, 0x00, 0x00, 0x04, 0x00, 0x00, 0x00,
   0x00, 0x00, 0x04, 0x00, 0x00, 0x00, 0x00, 0x00, 0x00, 0x00, 0x00, 0x00 };
