#define frame2_width 47
#define frame2_height 46
static unsigned char frame2_bits[] = {
   0x00, 0x00, 0x00, 0x00, 0x00, 0x00, 0x00, 0x00, 0x00, 0x00, 0x00, 0x00,
   0x00, 0x00, 0x00, 0x01, 0x00, 0x00, 0x00, 0x00, 0x00, 0x02, 0x00, 0x00,
   0x00, 0x00, 0x00, 0x42, 0x00, 0x00, 0x00, 0x00, 0x00, 0x43, 0x00, 0x00,
   0x00, 0x00, 0x00, 0xc1, 0x00, 0x00, 0x00, 0x00, 0x80, 0xf1, 0x00, 0x00,
   0x00, 0x00, 0xc0, 0xd6, 0x08, 0x00, 0x00, 0x00, 0x60, 0x16, 0x10, 0x00,
   0x00, 0x00, 0xb0, 0x18, 0x24, 0x00, 0x00, 0x00, 0x3c, 0x11, 0x04, 0x00,
   0x00, 0x00, 0xe8, 0x20, 0x48, 0x00, 0x00, 0x00, 0x88, 0x4d, 0x18, 0x00,
   0x00, 0x20, 0xbd, 0x01, 0xc0, 0x00, 0x00, 0x20, 0xce, 0x81, 0x84, 0x00,
   0x00, 0x20, 0xf8, 0x00, 0x00, 0x01, 0x00, 0x20, 0xdd, 0x00, 0x00, 0x02,
   0x00, 0x32, 0xb0, 0x00, 0x00, 0x02, 0x00, 0x22, 0xb0, 0x00, 0x70, 0x02,
   0x00, 0x02, 0xc0, 0x01, 0x18, 0x02, 0x00, 0x0e, 0x00, 0x80, 0x51, 0x01,
   0x40, 0x83, 0x00, 0x00, 0x00, 0x01, 0x40, 0xe0, 0x01, 0x00, 0x00, 0x01,
   0x00, 0x30, 0x03, 0x00, 0x8e, 0x00, 0xc0, 0x0d, 0x03, 0x00, 0xe0, 0x00,
   0x40, 0x86, 0x39, 0x00, 0x60, 0x00, 0xe0, 0x61, 0x2c, 0x00, 0x30, 0x00,
   0x00, 0x38, 0x3f, 0x00, 0x0c, 0x00, 0x00, 0xfc, 0xef, 0xa3, 0x03, 0x00,
   0x00, 0x80, 0x03, 0x7e, 0x00, 0x00, 0x00, 0x00, 0x00, 0x00, 0x00, 0x00,
   0x00, 0x00, 0x00, 0x00, 0x00, 0x00, 0x00, 0x00, 0x00, 0x00, 0x00, 0x00,
   0x00, 0x00, 0x00, 0x00, 0x00, 0x00, 0x00, 0x00, 0x00, 0x00, 0x00, 0x00,
   0x00, 0x00, 0x00, 0x00, 0x00, 0x00, 0x00, 0x00, 0x00, 0x00, 0x00, 0x00,
   0x00, 0x00, 0x00, 0x00, 0x00, 0x00, 0x00, 0x00, 0x00, 0x00, 0x00, 0x00,
   0x00, 0x00, 0x00, 0x00, 0x00, 0x00, 0x00, 0x00, 0x00, 0x00, 0x00, 0x00,
   0x00, 0x00, 0x00, 0x00, 0x00, 0x00, 0x00, 0x00, 0x00, 0x00, 0x00, 0x00,
   0x00, 0x00, 0x00, 0x00, 0x00, 0x00, 0x00, 0x00, 0x00, 0x00, 0x00, 0x00 };
