#define frame7_width 47
#define frame7_height 46
static unsigned char frame7_bits[] = {
   0x00, 0x00, 0x00, 0x00, 0x00, 0x00, 0x00, 0x00, 0x00, 0x00, 0x00, 0x00,
   0x00, 0x00, 0x00, 0x00, 0x00, 0x00, 0x00, 0x00, 0x00, 0x00, 0x00, 0x00,
   0x00, 0x00, 0x00, 0x00, 0x00, 0x00, 0x00, 0x00, 0x00, 0x00, 0x00, 0x00,
   0x00, 0x00, 0x00, 0x00, 0x00, 0x00, 0x00, 0x00, 0x00, 0x30, 0x00, 0x00,
   0x00, 0x00, 0x00, 0x50, 0x08, 0x00, 0x00, 0x00, 0x00, 0x14, 0x10, 0x00,
   0x00, 0x00, 0x00, 0x18, 0x24, 0x00, 0x00, 0x00, 0x28, 0x11, 0x04, 0x00,
   0x00, 0x00, 0xc0, 0x21, 0x48, 0x00, 0x00, 0x00, 0x80, 0x4c, 0x18, 0x00,
   0x00, 0x20, 0x25, 0x00, 0xc0, 0x00, 0x00, 0x20, 0x06, 0x80, 0x84, 0x00,
   0x00, 0x20, 0x02, 0x00, 0x00, 0x01, 0x00, 0xe0, 0xfe, 0x00, 0x00, 0x02,
   0x00, 0xf2, 0x3f, 0x03, 0x00, 0x02, 0x00, 0x22, 0xa3, 0x01, 0x78, 0x02,
   0x00, 0x02, 0xaa, 0x80, 0x10, 0x02, 0x00, 0x0e, 0x2a, 0x80, 0x71, 0x01,
   0x40, 0xc3, 0x55, 0x00, 0x00, 0x01, 0x40, 0xe0, 0x0d, 0x00, 0x00, 0x01,
   0x00, 0x30, 0x0f, 0x00, 0x8e, 0x00, 0xc0, 0x0d, 0x0f, 0x00, 0xe0, 0x00,
   0x40, 0x86, 0x7d, 0x00, 0x40, 0x00, 0xe0, 0x41, 0x1f, 0x00, 0x30, 0x00,
   0x00, 0x30, 0x3f, 0x00, 0x0c, 0x00, 0x00, 0xb8, 0xff, 0xcb, 0x03, 0x00,
   0x00, 0xf0, 0x07, 0x7e, 0x00, 0x00, 0x00, 0x00, 0x00, 0x00, 0x00, 0x00,
   0x00, 0x00, 0x00, 0x00, 0x00, 0x00, 0x00, 0x00, 0x00, 0x00, 0x00, 0x00,
   0x00, 0x00, 0x00, 0x00, 0x00, 0x00, 0x00, 0x00, 0x00, 0x00, 0x00, 0x00,
   0x00, 0x00, 0x00, 0x00, 0x00, 0x00, 0x00, 0x00, 0x00, 0x00, 0x00, 0x00,
   0x00, 0x00, 0x00, 0x00, 0x00, 0x00, 0x00, 0x00, 0x00, 0x00, 0x00, 0x00,
   0x00, 0x00, 0x00, 0x00, 0x00, 0x00, 0x00, 0x00, 0x00, 0x00, 0x00, 0x00,
   0x00, 0x00, 0x00, 0x00, 0x00, 0x00, 0x00, 0x00, 0x00, 0x00, 0x00, 0x00,
   0x00, 0x00, 0x00, 0x00, 0x00, 0x00, 0x00, 0x00, 0x00, 0x00, 0x00, 0x00 };
