#define RUN_4_width 64
#define RUN_4_height 47
static unsigned char RUN_4_bits[] = {
   0x00, 0x00, 0x00, 0x00, 0x00, 0x00, 0x00, 0x00, 0x00, 0x00, 0x00, 0x00,
   0x00, 0x00, 0x00, 0x00, 0x00, 0x00, 0x00, 0x00, 0x00, 0x00, 0x00, 0x00,
   0x00, 0x00, 0x00, 0x00, 0x00, 0x00, 0x00, 0x00, 0x00, 0x00, 0x00, 0xc0,
   0x00, 0x00, 0x00, 0x00, 0x00, 0x00, 0x00, 0xfe, 0xff, 0x00, 0x00, 0x00,
   0x00, 0x00, 0x80, 0x07, 0xee, 0x01, 0x00, 0x00, 0x00, 0x00, 0xe0, 0x00,
   0x86, 0x03, 0x00, 0x00, 0x00, 0x00, 0x70, 0x00, 0xf3, 0x03, 0x00, 0x00,
   0x00, 0x00, 0x18, 0x80, 0xe9, 0x07, 0x00, 0x00, 0x00, 0x00, 0x0c, 0x80,
   0x70, 0x0c, 0x00, 0x00, 0x00, 0x00, 0x06, 0xc0, 0x34, 0x18, 0x00, 0x00,
   0x00, 0x00, 0x03, 0x40, 0x3c, 0x30, 0x00, 0x00, 0x00, 0x80, 0x01, 0x40,
   0x1a, 0x60, 0x00, 0x00, 0x00, 0x80, 0x00, 0x60, 0x1c, 0x40, 0x00, 0x00,
   0x00, 0xc0, 0x00, 0x60, 0x1d, 0xc0, 0x00, 0x00, 0x18, 0x60, 0x00, 0xe0,
   0x1f, 0x80, 0x00, 0x00, 0x3c, 0x78, 0x00, 0x18, 0x30, 0x80, 0x01, 0x00,
   0xfc, 0xf8, 0x01, 0x08, 0x20, 0x00, 0x01, 0x00, 0xf8, 0x3b, 0x1f, 0x48,
   0x21, 0x01, 0x03, 0x00, 0x78, 0x7e, 0x70, 0xd8, 0x6b, 0x62, 0x03, 0x00,
   0x30, 0xfc, 0x83, 0xd8, 0x6b, 0x66, 0x03, 0x00, 0xe0, 0xf9, 0x02, 0xd9,
   0x71, 0x06, 0x02, 0x00, 0x00, 0xbf, 0x16, 0xd8, 0x23, 0x80, 0xff, 0x03,
   0x00, 0x17, 0x00, 0xd8, 0x7b, 0xf8, 0xdb, 0x3f, 0xe0, 0x18, 0x00, 0xd8,
   0x32, 0x0e, 0x00, 0x18, 0x78, 0x3e, 0x00, 0xf8, 0x3f, 0x06, 0x00, 0x18,
   0xf8, 0x33, 0x00, 0xf0, 0x3f, 0x4c, 0x00, 0x0c, 0xe0, 0x31, 0x00, 0x40,
   0x05, 0x98, 0x03, 0x06, 0x00, 0x60, 0x00, 0x00, 0x00, 0x98, 0x3f, 0x03,
   0x00, 0xe0, 0x00, 0x00, 0x00, 0xf0, 0xf1, 0x03, 0x00, 0xc0, 0x00, 0x00,
   0x00, 0xe0, 0x80, 0x01, 0x00, 0x80, 0x03, 0x00, 0x00, 0x70, 0x00, 0x00,
   0x00, 0x00, 0x07, 0x00, 0x00, 0x38, 0x00, 0x00, 0x00, 0x00, 0x1e, 0x00,
   0x00, 0x1e, 0x00, 0x00, 0x00, 0x00, 0xf8, 0x00, 0xc0, 0x07, 0x00, 0x00,
   0x00, 0x00, 0xe0, 0xbf, 0xff, 0x01, 0x00, 0x00, 0x00, 0x00, 0x00, 0xff,
   0x3f, 0x00, 0x00, 0x00, 0x00, 0x00, 0x1c, 0x03, 0x0c, 0x00, 0x00, 0x00,
   0x00, 0x00, 0x3e, 0x03, 0x1c, 0x00, 0x00, 0x00, 0x00, 0x00, 0xff, 0x03,
   0x18, 0x70, 0x00, 0x00, 0x00, 0x80, 0xe7, 0x03, 0x38, 0xfc, 0x00, 0x00,
   0x00, 0xc0, 0x83, 0x01, 0x30, 0x7e, 0x00, 0x00, 0x00, 0xe0, 0x03, 0x00,
   0x30, 0x1f, 0x00, 0x00, 0x00, 0xf0, 0x01, 0x00, 0xe0, 0x07, 0x00, 0x00,
   0x00, 0xe0, 0x00, 0x00, 0xe0, 0x01, 0x00, 0x00, 0x00, 0x00, 0x00, 0x00,
   0x40, 0x00, 0x00, 0x00 };
