#define RUN_3_width 64
#define RUN_3_height 47
static unsigned char RUN_3_bits[] = {
   0x00, 0x00, 0x00, 0x00, 0x00, 0x00, 0x00, 0x00, 0x00, 0x00, 0x00, 0x00,
   0x00, 0x00, 0x00, 0x00, 0x00, 0x00, 0x00, 0x00, 0x00, 0x00, 0x00, 0x00,
   0x00, 0x00, 0x00, 0x00, 0x00, 0x00, 0x00, 0x00, 0x00, 0x00, 0x00, 0xc0,
   0x00, 0x00, 0x00, 0x00, 0x00, 0x00, 0x00, 0xfc, 0x7f, 0x00, 0x00, 0x00,
   0x00, 0x00, 0x00, 0x0f, 0xee, 0x01, 0x00, 0x00, 0x00, 0x00, 0xc0, 0x01,
   0xa6, 0x03, 0x00, 0x00, 0x00, 0x00, 0x70, 0x00, 0xa3, 0x03, 0x00, 0x00,
   0x00, 0x00, 0x18, 0x80, 0xe9, 0x07, 0x00, 0x00, 0x00, 0x20, 0x0c, 0x80,
   0xe8, 0x0c, 0x00, 0x00, 0x00, 0x60, 0x06, 0xc0, 0x74, 0x18, 0x00, 0x00,
   0x00, 0xe0, 0x03, 0xc0, 0x3c, 0x30, 0x00, 0x00, 0x00, 0xa0, 0x01, 0x40,
   0x1a, 0x60, 0x00, 0x00, 0x00, 0x20, 0x03, 0x40, 0x1c, 0x60, 0x00, 0x00,
   0x00, 0x60, 0x06, 0x60, 0x1d, 0xc0, 0x00, 0x00, 0x08, 0x70, 0x18, 0xe0,
   0x1f, 0x80, 0x00, 0x00, 0x3c, 0x90, 0x21, 0xb8, 0x35, 0x80, 0x01, 0x00,
   0x7c, 0x20, 0x63, 0x08, 0x20, 0x00, 0x01, 0x00, 0xf8, 0x71, 0x82, 0x08,
   0x60, 0x00, 0x03, 0x00, 0x78, 0xf7, 0x01, 0xd8, 0x65, 0xa3, 0x03, 0x00,
   0x30, 0x7c, 0x4f, 0xe8, 0x2b, 0x6e, 0x02, 0x00, 0xe0, 0x58, 0x00, 0xd9,
   0x71, 0x46, 0x02, 0x00, 0x00, 0x9f, 0x01, 0xd8, 0x65, 0x00, 0x7f, 0x00,
   0x00, 0x3e, 0x16, 0xd8, 0x73, 0xf0, 0xff, 0x3f, 0xc0, 0x19, 0x00, 0xd8,
   0x35, 0x3e, 0x00, 0x38, 0x78, 0x3c, 0x00, 0x78, 0x3b, 0x06, 0x00, 0x18,
   0xf8, 0x36, 0x00, 0xf0, 0x3f, 0x0c, 0x00, 0x0c, 0xf0, 0x31, 0x00, 0xe0,
   0x0f, 0x98, 0x01, 0x06, 0x00, 0x20, 0x00, 0x00, 0x00, 0x98, 0x1f, 0x06,
   0x00, 0x60, 0x00, 0x00, 0x00, 0xb0, 0xf9, 0x03, 0x00, 0xc0, 0x00, 0x00,
   0x00, 0xe0, 0x80, 0x01, 0x00, 0x80, 0x01, 0x00, 0x00, 0x60, 0x00, 0x00,
   0x00, 0x00, 0x03, 0x00, 0x00, 0x38, 0x00, 0x00, 0x00, 0x00, 0x0e, 0x00,
   0x00, 0x1c, 0x00, 0x00, 0x00, 0x00, 0x7c, 0x00, 0x80, 0x0f, 0x00, 0x00,
   0x00, 0x00, 0xf0, 0x0b, 0xf5, 0x03, 0x00, 0x00, 0x00, 0x00, 0xc0, 0xff,
   0x7f, 0x00, 0x00, 0x00, 0x00, 0x00, 0xc0, 0x01, 0x78, 0x00, 0x00, 0x00,
   0x00, 0x00, 0xc0, 0x00, 0xe0, 0x00, 0x00, 0x00, 0x00, 0x00, 0xe0, 0x00,
   0xc0, 0x00, 0x00, 0x00, 0x00, 0x00, 0x60, 0x00, 0xc0, 0x00, 0x00, 0x00,
   0x00, 0x00, 0x70, 0x00, 0x60, 0x00, 0x00, 0x00, 0x00, 0x00, 0x30, 0x00,
   0xf0, 0x0f, 0x00, 0x00, 0x00, 0x00, 0xb0, 0x0f, 0xf8, 0x1f, 0x00, 0x00,
   0x00, 0x00, 0xf8, 0x1f, 0x00, 0x00, 0x00, 0x00, 0x00, 0x00, 0xf8, 0x1f,
   0x00, 0x00, 0x00, 0x00 };
