#define RUN_2_width 64
#define RUN_2_height 47
static unsigned char RUN_2_bits[] = {
   0x00, 0x00, 0x00, 0x00, 0x00, 0x00, 0x00, 0x00, 0x00, 0x00, 0x00, 0x00,
   0x00, 0x00, 0x00, 0x00, 0x00, 0x00, 0x00, 0x00, 0x00, 0x00, 0x00, 0x00,
   0x00, 0x00, 0x00, 0x00, 0x00, 0x00, 0x00, 0x00, 0x00, 0x00, 0x00, 0xc0,
   0x00, 0x00, 0x00, 0x00, 0x00, 0x00, 0x00, 0xfe, 0xff, 0x00, 0x00, 0x00,
   0x00, 0x00, 0x80, 0x07, 0xee, 0x01, 0x00, 0x00, 0x00, 0x00, 0xe0, 0x00,
   0x86, 0x03, 0x00, 0x00, 0x00, 0x00, 0x70, 0x00, 0xf3, 0x07, 0x00, 0x00,
   0x00, 0x00, 0x18, 0x80, 0xe9, 0x07, 0x00, 0x00, 0x00, 0x00, 0x0c, 0x80,
   0x70, 0x0c, 0x00, 0x00, 0x00, 0x00, 0x06, 0xc0, 0x34, 0x18, 0x00, 0x00,
   0x00, 0x00, 0x03, 0x40, 0x3c, 0x30, 0x00, 0x00, 0x00, 0x80, 0x01, 0x40,
   0x1a, 0x60, 0x00, 0x00, 0x00, 0x80, 0x00, 0x60, 0x1c, 0x40, 0x00, 0x00,
   0x00, 0xc0, 0x00, 0x60, 0x1d, 0xc0, 0x00, 0x00, 0x18, 0x60, 0x00, 0xf0,
   0x1f, 0x80, 0x00, 0x00, 0x3c, 0x7c, 0x00, 0x18, 0x30, 0x80, 0x01, 0x00,
   0xfc, 0xf8, 0x01, 0x08, 0x20, 0x00, 0x01, 0x00, 0xf8, 0x33, 0x1f, 0x48,
   0x21, 0x01, 0x03, 0x00, 0x78, 0xbe, 0x60, 0xd8, 0x6b, 0x62, 0x03, 0x00,
   0x30, 0xbc, 0x87, 0xe8, 0x6b, 0x66, 0x02, 0x00, 0xe0, 0xf9, 0x00, 0xd9,
   0x71, 0x06, 0x03, 0x00, 0x00, 0x5f, 0x17, 0xd8, 0x23, 0x80, 0xff, 0x03,
   0x00, 0x1f, 0x00, 0xd8, 0x6b, 0xf8, 0xf7, 0x3f, 0xe0, 0x18, 0x00, 0xd8,
   0x35, 0x0e, 0x00, 0x18, 0x78, 0x3c, 0x00, 0x78, 0x3f, 0x06, 0x00, 0x18,
   0xf8, 0x33, 0x00, 0xf0, 0x3f, 0x0c, 0x00, 0x0c, 0xe0, 0x31, 0x00, 0x40,
   0x05, 0x98, 0x03, 0x06, 0x00, 0x60, 0x00, 0x00, 0x00, 0x98, 0x3f, 0x03,
   0x00, 0xe0, 0x00, 0x00, 0x00, 0xb0, 0xf1, 0x03, 0x00, 0xc0, 0x00, 0x00,
   0x00, 0xe0, 0x00, 0x01, 0x00, 0x80, 0x01, 0x00, 0x00, 0x70, 0x00, 0x00,
   0x00, 0x00, 0x07, 0x00, 0x00, 0x38, 0x00, 0x00, 0x00, 0x00, 0x1e, 0x00,
   0x00, 0x1e, 0x00, 0x00, 0x00, 0x00, 0xf8, 0x00, 0xc0, 0x07, 0x00, 0x00,
   0x00, 0x00, 0xe0, 0xbf, 0xff, 0x01, 0x00, 0x00, 0x00, 0x00, 0x00, 0xff,
   0x3f, 0x00, 0x00, 0x00, 0x00, 0x00, 0x00, 0xee, 0x31, 0x00, 0x00, 0x00,
   0x00, 0x00, 0x00, 0xee, 0x37, 0x00, 0x00, 0x00, 0x00, 0x00, 0x00, 0x7c,
   0x3f, 0x00, 0x00, 0x00, 0x00, 0x00, 0x00, 0x3c, 0x7e, 0x00, 0x00, 0x00,
   0x00, 0x00, 0x00, 0x3e, 0x3f, 0x00, 0x00, 0x00, 0x00, 0x00, 0x00, 0x9f,
   0x0f, 0x00, 0x00, 0x00, 0x00, 0x00, 0x80, 0xff, 0x03, 0x00, 0x00, 0x00,
   0x00, 0x00, 0x00, 0xf0, 0x00, 0x00, 0x00, 0x00, 0x00, 0x00, 0x00, 0x30,
   0x00, 0x00, 0x00, 0x00 };
