#define RUN_1_width 64
#define RUN_1_height 47
static unsigned char RUN_1_bits[] = {
   0x00, 0x00, 0x00, 0x00, 0x00, 0x00, 0x00, 0x00, 0x00, 0x00, 0x00, 0x00,
   0x00, 0x00, 0x00, 0x00, 0x00, 0x00, 0x00, 0x00, 0x00, 0x00, 0x00, 0x00,
   0x00, 0x00, 0x00, 0x00, 0x00, 0x00, 0x00, 0x00, 0x00, 0x00, 0x00, 0xf0,
   0x33, 0x00, 0x00, 0x00, 0x00, 0x00, 0x00, 0xfe, 0xff, 0x00, 0x00, 0x00,
   0x00, 0x00, 0xc0, 0x03, 0xe6, 0x03, 0x00, 0x00, 0x00, 0x00, 0xe0, 0x00,
   0x82, 0x03, 0x00, 0x00, 0x00, 0x00, 0x30, 0x00, 0xf3, 0x07, 0x00, 0x00,
   0x00, 0x00, 0x1c, 0x80, 0xe9, 0x0e, 0x00, 0x00, 0x00, 0x60, 0x0e, 0x80,
   0x74, 0x1c, 0x00, 0x00, 0x00, 0x60, 0x02, 0xc0, 0x34, 0x18, 0x00, 0x00,
   0x00, 0x80, 0x01, 0x40, 0x3c, 0x30, 0x00, 0x00, 0x00, 0x20, 0x01, 0x40,
   0x1a, 0x60, 0x00, 0x00, 0x00, 0x20, 0x06, 0x60, 0x1c, 0xc0, 0x00, 0x00,
   0x00, 0x60, 0x0c, 0x60, 0x1f, 0xc0, 0x00, 0x00, 0x18, 0xd0, 0x30, 0xf0,
   0x1f, 0x80, 0x01, 0x00, 0x7c, 0x80, 0x21, 0x18, 0x30, 0x00, 0x01, 0x00,
   0xf8, 0x60, 0x42, 0x08, 0x60, 0x00, 0x01, 0x00, 0xf8, 0xf3, 0x81, 0xc8,
   0x25, 0x22, 0x03, 0x00, 0x30, 0x7e, 0x07, 0xd9, 0x69, 0x62, 0x03, 0x00,
   0x70, 0x78, 0x1c, 0xd8, 0x2b, 0x66, 0x02, 0x00, 0xc0, 0x9b, 0x00, 0xd8,
   0x71, 0x06, 0x03, 0x00, 0x00, 0x9e, 0x03, 0xd8, 0x23, 0xc0, 0xff, 0x0f,
   0x00, 0x1b, 0x04, 0xd8, 0x7b, 0x78, 0x01, 0x3f, 0xe0, 0x18, 0x00, 0xd8,
   0x32, 0x0e, 0x00, 0x18, 0x78, 0x36, 0x00, 0xf8, 0x3f, 0x04, 0x00, 0x08,
   0xf8, 0x33, 0x00, 0xf0, 0x1f, 0x8c, 0x00, 0x0c, 0xe0, 0x20, 0x00, 0x00,
   0x04, 0x18, 0x0f, 0x06, 0x00, 0x60, 0x00, 0x00, 0x00, 0x90, 0x7f, 0x03,
   0x00, 0xc0, 0x00, 0x00, 0x00, 0xf0, 0xe0, 0x01, 0x00, 0xc0, 0x01, 0x00,
   0x00, 0xe0, 0x00, 0x00, 0x00, 0x80, 0x03, 0x00, 0x00, 0x70, 0x00, 0x00,
   0x00, 0x00, 0x07, 0x00, 0x00, 0x38, 0x00, 0x00, 0x00, 0x00, 0x1c, 0x00,
   0x00, 0x0f, 0x00, 0x00, 0x00, 0x00, 0xf8, 0x01, 0xe0, 0x07, 0x00, 0x00,
   0x00, 0x00, 0xc0, 0xff, 0xff, 0x00, 0x00, 0x00, 0x00, 0x00, 0x00, 0xfe,
   0x1f, 0x00, 0x00, 0x00, 0x00, 0x00, 0x00, 0x0c, 0x0c, 0x00, 0x00, 0x00,
   0x00, 0x00, 0x00, 0x0c, 0x0e, 0x00, 0x00, 0x00, 0x00, 0x00, 0x00, 0x0c,
   0x06, 0x00, 0x00, 0x00, 0x00, 0x00, 0x00, 0xcc, 0x1f, 0x00, 0x00, 0x00,
   0x00, 0x00, 0x00, 0xfe, 0x1f, 0x00, 0x00, 0x00, 0x00, 0x00, 0x00, 0xfe,
   0x03, 0x00, 0x00, 0x00, 0x00, 0x00, 0x00, 0x86, 0xfb, 0x01, 0x00, 0x00,
   0x00, 0x00, 0x00, 0x80, 0xff, 0x01, 0x00, 0x00, 0x00, 0x00, 0x00, 0xc0,
   0xff, 0x03, 0x00, 0x00 };
